<svg xmlns="http://www.w3.org/2000/svg" viewBox="0 0 32 32" fill="none">
  <rect width="32" height="32" rx="6" fill="#2c2519"/>
  <path
    fill-rule="evenodd"
    clip-rule="evenodd"
    d="M18 6h-4l-.7 3.4a10 10 0 0 0-2.7 1.1l-3-1.9-2.8 2.8 2 3a10 10 0 0 0-1.2 2.6L2.2 18v4l3.4.7c.3 1 .6 1.9 1.1 2.7l-1.9 3 2.8 2.8 3-2c.8.6 1.7.9 2.6 1.2L14 34h4l.7-3.4c1-.3 1.9-.6 2.7-1.1l3 1.9 2.8-2.8-2-3c.6-.8.9-1.7 1.2-2.6l3.4-.8v-4l-3.4-.7a10 10 0 0 0-1.1-2.7l1.9-3-2.8-2.8-3 2a10 10 0 0 0-2.6-1.2L18 6Z"
    fill="#ab8a58"
    transform="translate(0 -4)"
  />
  <circle cx="16" cy="16" r="4.5" fill="#2c2519"/>
  <circle cx="16" cy="16" r="2.6" fill="#93bf6b"/>
</svg>
